<svg width="53" height="53" viewBox="0 0 53 53" fill="none" xmlns="http://www.w3.org/2000/svg">
<path d="M0.0334174 17.046C0.233922 16.6116 0.401009 16.1438 0.634932 15.7762C1.26986 14.8405 2.17213 14.2724 3.30833 14.2055C4.94578 14.1387 6.61666 14.2055 8.28753 14.2055C8.32094 14.3392 8.32094 14.4729 8.32094 14.6066C8.32094 16.7787 8.32094 18.9508 8.32094 21.123C8.32094 21.4571 8.22069 21.5908 7.88652 21.6911C5.27996 22.3928 3.74275 24.1305 3.20808 26.7705C2.17213 31.85 1.13619 36.9294 0.100252 42.0089C0.100252 42.0757 0.0334174 42.1425 0 42.176C0.0334174 33.7548 0.0334174 25.4004 0.0334174 17.046Z" fill="#29C4EE"/>
<path d="M25.3639 49.862C18.7806 49.862 12.1974 49.862 5.58073 49.862C3.64252 49.862 2.13873 48.5921 2.03848 46.7876C2.00506 45.9522 2.17215 45.1167 2.33924 44.2813C3.47543 38.6003 4.64504 32.9193 5.81465 27.2384C6.21566 25.2667 7.6192 24.0637 9.62424 24.0637C23.3588 24.0637 37.1268 24.0637 50.8614 24.0637C52.3652 24.0637 53.1003 24.966 52.7996 26.4364C51.4295 33.2535 50.0259 40.1041 48.6224 46.9213C48.2548 48.7926 46.9181 49.862 45.0133 49.862C38.4635 49.862 31.9137 49.862 25.3639 49.862Z" fill="#0972BB"/>
<path d="M10.9941 21.4237C10.9941 21.1898 10.9941 21.0227 10.9941 20.8556C10.9941 15.5756 10.9941 10.3291 10.9941 5.04914C10.9941 3.74586 11.5288 3.21118 12.8321 3.21118C22.0887 3.21118 31.3454 3.21118 40.602 3.21118C41.9053 3.21118 42.44 3.77928 42.44 5.08256C42.44 10.3625 42.44 15.6091 42.44 20.889C42.44 21.3569 42.3063 21.4905 41.8384 21.4905C31.7464 21.4905 21.6543 21.4905 11.5288 21.4905C11.3952 21.4571 11.2281 21.4237 10.9941 21.4237ZM26.7003 15.1746C24.0604 15.1746 21.4538 15.1746 18.8138 15.1746C17.945 15.1746 17.1095 15.1412 16.2407 15.1746C15.3384 15.208 14.7369 15.9432 14.904 16.7787C15.0377 17.4136 15.6057 17.8146 16.4746 17.8146C23.2918 17.8146 30.1423 17.8146 36.9595 17.8146C37.16 17.8146 37.3605 17.8146 37.561 17.7478C38.0957 17.6141 38.4967 17.1463 38.5635 16.6116C38.6304 16.0435 38.3296 15.4754 37.7949 15.2749C37.5276 15.1746 37.1934 15.1412 36.8927 15.1412C33.4841 15.1746 30.1089 15.1746 26.7003 15.1746ZM26.6669 10.964C27.6694 10.964 28.7054 10.964 29.7079 10.964C32.1808 10.964 34.6537 10.964 37.1266 10.964C37.9954 10.964 38.6304 10.2957 38.5301 9.49366C38.4633 8.75848 37.8618 8.32405 36.8592 8.32405C30.0755 8.32405 23.3252 8.32405 16.5414 8.32405C16.3409 8.32405 16.1404 8.32405 15.9399 8.35747C15.3384 8.45772 14.904 8.95898 14.8706 9.5605C14.8371 10.3625 15.4387 10.964 16.3075 10.964C19.7495 10.964 23.2249 10.964 26.6669 10.964Z" fill="#0972BB"/>
<path d="M49.4576 21.4237C47.9872 21.4237 46.5836 21.4237 45.1133 21.4237C45.1133 20.5214 45.1133 19.6525 45.1133 18.7503C47.4191 18.3493 49.2905 19.4855 49.4576 21.4237Z" fill="#29C4EE"/>
</svg>
