<svg width="419" height="395" viewBox="0 0 419 395" fill="none" xmlns="http://www.w3.org/2000/svg">
<path d="M110.56 377.845C130.374 397.748 177.596 389.106 197.802 375.676C263.413 332.096 378.497 259.397 381.28 158.185C382.467 115.145 344.002 93.5314 328.002 87.287C289.537 72.3266 247.741 68.5946 206.518 67.7681C163.454 66.9496 117.353 69.5522 79.1418 91.5017C64.6643 99.8167 51.0706 110.325 41.9454 124.5C32.6647 138.838 27.5169 155.804 26.5021 172.835C24.808 200.3 32.8693 227.602 44.6379 252.473C56.4066 277.345 71.858 300.268 86.1064 323.814C95.3953 339.183 93.8649 361.076 110.56 377.845Z" fill="#E5FAFF"/>
<path opacity="0.7" d="M110.56 377.845C130.374 397.748 177.596 389.106 197.802 375.676C263.413 332.096 378.497 259.397 381.28 158.185C382.467 115.145 344.002 93.5314 328.002 87.287C289.537 72.3266 247.741 68.5946 206.518 67.7681C163.454 66.9496 117.353 69.5522 79.1418 91.5017C64.6643 99.8167 51.0706 110.325 41.9454 124.5C32.6647 138.838 27.5169 155.804 26.5021 172.835C24.808 200.3 32.8693 227.602 44.6379 252.473C56.4066 277.345 71.858 300.268 86.1064 323.814C95.3953 339.183 93.8649 361.076 110.56 377.845Z" fill="white"/>
<path d="M418.081 1H1.73145V18.9532H418.081V1Z" stroke="#263238" stroke-linecap="round" stroke-linejoin="round"/>
<path d="M411.992 13.679C411.261 14.408 410.331 14.904 409.318 15.1044C408.305 15.3049 407.256 15.2007 406.303 14.805C405.349 14.4094 404.534 13.7401 403.961 12.8816C403.388 12.0232 403.082 11.0141 403.082 9.98182C403.082 8.94957 403.388 7.94048 403.961 7.08201C404.534 6.22354 405.349 5.55422 406.303 5.15859C407.256 4.76297 408.305 4.65878 409.318 4.8592C410.331 5.05963 411.261 5.55566 411.992 6.28465C412.478 6.76973 412.864 7.34598 413.127 7.9804C413.391 8.61483 413.526 9.29495 413.526 9.98182C413.526 10.6687 413.391 11.3488 413.127 11.9832C412.864 12.6177 412.478 13.1939 411.992 13.679Z" stroke="#263238" stroke-linecap="round" stroke-linejoin="round"/>
<path d="M410.185 8.07062L406.384 11.8827" stroke="#263238" stroke-linecap="round" stroke-linejoin="round"/>
<path d="M410.185 11.8827L406.384 8.07062" stroke="#263238" stroke-linecap="round" stroke-linejoin="round"/>
<path d="M397.819 9.98182C397.819 11.0146 397.513 12.0243 396.939 12.883C396.365 13.7418 395.55 14.4111 394.595 14.8063C393.641 15.2016 392.591 15.305 391.578 15.1035C390.565 14.902 389.635 14.4046 388.904 13.6743C388.174 12.944 387.677 12.0135 387.475 11.0006C387.274 9.98761 387.377 8.93764 387.772 7.98345C388.168 7.02925 388.837 6.21369 389.696 5.63989C390.555 5.06609 391.564 4.75983 392.597 4.75983C393.982 4.75983 395.31 5.31 396.289 6.28931C397.269 7.26863 397.819 8.59686 397.819 9.98182Z" stroke="#263238" stroke-linecap="round" stroke-linejoin="round"/>
<path d="M392.587 12.6764V7.28729H395.282V9.98184H389.893V12.6764H392.587Z" stroke="#263238" stroke-linecap="round" stroke-linejoin="round"/>
<path d="M382.122 9.98182C382.122 11.0146 381.815 12.0243 381.242 12.883C380.668 13.7418 379.852 14.4111 378.898 14.8063C377.944 15.2016 376.894 15.305 375.881 15.1035C374.868 14.902 373.938 14.4046 373.207 13.6743C372.477 12.944 371.98 12.0135 371.778 11.0006C371.577 9.98761 371.68 8.93764 372.075 7.98345C372.47 7.02925 373.14 6.21369 373.999 5.63989C374.857 5.06609 375.867 4.75983 376.9 4.75983C378.285 4.75983 379.613 5.31 380.592 6.28931C381.572 7.26863 382.122 8.59686 382.122 9.98182Z" stroke="#263238" stroke-linecap="round" stroke-linejoin="round"/>
<path d="M379.574 9.98181H374.185" stroke="#263238" stroke-linecap="round" stroke-linejoin="round"/>
<path d="M1.05176 117.21V23.9141H79.3921" stroke="#263238" stroke-linecap="round" stroke-linejoin="round"/>
<path d="M418.08 170.767V23.9141H376.879" stroke="#263238" stroke-linecap="round" stroke-linejoin="round"/>
<path d="M418.08 180.689V213.055" stroke="#263238" stroke-linecap="round" stroke-linejoin="round"/>
<path d="M418.08 237.682V250.371" stroke="#263238" stroke-linecap="round" stroke-linejoin="round"/>
<path d="M1 125.701V140.584" stroke="#263238" stroke-linecap="round" stroke-linejoin="round"/>
<path d="M88.0713 23.9141H199.342" stroke="#263238" stroke-linecap="round" stroke-linejoin="round"/>
<path d="M234.914 23.9141H241.985" stroke="#263238" stroke-linecap="round" stroke-linejoin="round"/>
<path d="M385.886 308.284H378.533C377.389 308.252 376.291 307.829 375.423 307.084C374.555 306.339 373.969 305.319 373.764 304.193L371.983 293.002" stroke="#263238" stroke-linecap="round" stroke-linejoin="round"/>
<path d="M412.255 293.002L414.048 304.193C414.143 304.697 414.126 305.215 413.996 305.711C413.866 306.206 413.627 306.667 413.297 307.059C412.967 307.45 412.554 307.764 412.087 307.976C411.621 308.187 411.113 308.293 410.601 308.284H389.528" stroke="#263238" stroke-linecap="round" stroke-linejoin="round"/>
<path d="M397.709 277.709H405.752C406.893 277.743 407.988 278.168 408.854 278.913C409.72 279.657 410.304 280.676 410.509 281.8L411.589 288.59" stroke="#263238" stroke-linecap="round" stroke-linejoin="round"/>
<path d="M392.114 277.698H394.665" stroke="#263238" stroke-linecap="round" stroke-linejoin="round"/>
<path d="M371.49 289.889L370.192 281.846C370.096 281.342 370.114 280.824 370.243 280.328C370.373 279.833 370.612 279.372 370.942 278.981C371.272 278.589 371.685 278.275 372.152 278.064C372.618 277.852 373.126 277.746 373.638 277.755H386.944" stroke="#263238" stroke-linecap="round" stroke-linejoin="round"/>
<path d="M401.191 271.493H398.238C397.99 271.5 397.749 271.578 397.545 271.719C397.341 271.859 397.183 272.057 397.089 272.286L396.101 274.825H378.533C377.673 274.826 376.835 275.095 376.137 275.596C375.438 276.096 374.914 276.803 374.638 277.617" stroke="#263238" stroke-linecap="round" stroke-linejoin="round"/>
<path d="M414.703 278.939C414.702 277.902 414.308 276.904 413.6 276.147C412.892 275.39 411.923 274.93 410.888 274.86L409.889 272.286C409.795 272.057 409.636 271.859 409.432 271.719C409.228 271.578 408.987 271.5 408.74 271.493H403.167" stroke="#263238" stroke-linecap="round" stroke-linejoin="round"/>
<path d="M410.636 308.284C411.175 308.285 411.71 308.18 412.209 307.975C412.708 307.769 413.162 307.468 413.544 307.086C413.926 306.705 414.229 306.253 414.436 305.754C414.643 305.256 414.749 304.722 414.749 304.182V283.121" stroke="#263238" stroke-linecap="round" stroke-linejoin="round"/>
<path d="M312.34 297.093L309.904 281.8C309.809 281.296 309.826 280.778 309.956 280.282C310.086 279.787 310.325 279.326 310.655 278.935C310.985 278.543 311.398 278.23 311.865 278.018C312.331 277.806 312.839 277.7 313.351 277.709H318.637" stroke="#263238" stroke-linecap="round" stroke-linejoin="round"/>
<path d="M336.515 308.284H318.235C317.092 308.25 315.995 307.826 315.127 307.081C314.26 306.337 313.673 305.318 313.466 304.193L312.903 300.643" stroke="#263238" stroke-linecap="round" stroke-linejoin="round"/>
<path d="M345.304 308.284H339.237" stroke="#263238" stroke-linecap="round" stroke-linejoin="round"/>
<path d="M323.312 277.709H345.465C346.606 277.743 347.701 278.168 348.567 278.913C349.433 279.657 350.017 280.676 350.222 281.8L353.795 304.193C353.891 304.697 353.873 305.215 353.743 305.711C353.613 306.206 353.375 306.667 353.045 307.059C352.714 307.45 352.301 307.764 351.835 307.976C351.368 308.187 350.86 308.293 350.348 308.284" stroke="#263238" stroke-linecap="round" stroke-linejoin="round"/>
<path d="M328.483 274.825H318.234C317.375 274.827 316.538 275.097 315.839 275.598C315.141 276.098 314.616 276.804 314.339 277.617" stroke="#263238" stroke-linecap="round" stroke-linejoin="round"/>
<path d="M354.404 293.002V278.939C354.404 277.902 354.009 276.904 353.301 276.147C352.593 275.39 351.624 274.93 350.59 274.86L349.59 272.286C349.499 272.055 349.341 271.856 349.136 271.715C348.931 271.574 348.689 271.497 348.441 271.493H337.951C337.702 271.497 337.46 271.574 337.256 271.715C337.051 271.856 336.893 272.055 336.802 272.286L335.814 274.825H331.85" stroke="#263238" stroke-linecap="round" stroke-linejoin="round"/>
<path d="M350.291 308.284C350.831 308.285 351.365 308.18 351.864 307.975C352.363 307.769 352.817 307.467 353.199 307.086C353.581 306.705 353.884 306.253 354.091 305.754C354.298 305.256 354.404 304.722 354.404 304.182V295.76" stroke="#263238" stroke-linecap="round" stroke-linejoin="round"/>
<path d="M325.61 252.914H318.245C317.103 252.881 316.006 252.456 315.138 251.712C314.271 250.968 313.684 249.948 313.477 248.824L311.696 237.621" stroke="#263238" stroke-linecap="round" stroke-linejoin="round"/>
<path d="M351.969 237.621L353.75 248.824C353.845 249.327 353.828 249.846 353.698 250.341C353.568 250.837 353.329 251.297 352.999 251.689C352.669 252.081 352.256 252.394 351.789 252.606C351.323 252.818 350.815 252.923 350.303 252.914H329.23" stroke="#263238" stroke-linecap="round" stroke-linejoin="round"/>
<path d="M337.411 222.328H345.454C346.596 222.365 347.692 222.792 348.557 223.539C349.423 224.285 350.006 225.306 350.211 226.43L351.302 233.209" stroke="#263238" stroke-linecap="round" stroke-linejoin="round"/>
<path d="M331.827 222.328H334.366" stroke="#263238" stroke-linecap="round" stroke-linejoin="round"/>
<path d="M311.191 234.519L309.904 226.476C309.806 225.972 309.822 225.452 309.951 224.955C310.08 224.458 310.318 223.996 310.649 223.603C310.979 223.21 311.393 222.896 311.861 222.683C312.328 222.47 312.837 222.365 313.351 222.374H326.656" stroke="#263238" stroke-linecap="round" stroke-linejoin="round"/>
<path d="M340.903 216.124H337.939C337.69 216.124 337.446 216.2 337.241 216.341C337.036 216.483 336.879 216.684 336.79 216.917L335.802 219.456H318.234C317.375 219.458 316.538 219.728 315.839 220.228C315.141 220.729 314.616 221.435 314.339 222.248" stroke="#263238" stroke-linecap="round" stroke-linejoin="round"/>
<path d="M354.404 223.569C354.404 222.533 354.01 221.535 353.302 220.778C352.593 220.02 351.624 219.56 350.59 219.49L349.59 216.917C349.502 216.684 349.344 216.483 349.139 216.341C348.934 216.2 348.691 216.124 348.441 216.124H342.846" stroke="#263238" stroke-linecap="round" stroke-linejoin="round"/>
<path d="M350.291 252.914C350.831 252.916 351.365 252.811 351.864 252.605C352.363 252.4 352.817 252.098 353.199 251.717C353.581 251.336 353.884 250.883 354.091 250.385C354.298 249.886 354.404 249.352 354.404 248.812V227.775" stroke="#263238" stroke-linecap="round" stroke-linejoin="round"/>
<path d="M372.638 241.758L370.191 226.465C370.093 225.961 370.109 225.441 370.238 224.944C370.367 224.447 370.606 223.985 370.936 223.592C371.266 223.199 371.68 222.884 372.148 222.672C372.615 222.459 373.124 222.354 373.638 222.363H378.923" stroke="#263238" stroke-linecap="round" stroke-linejoin="round"/>
<path d="M396.847 252.914H378.532C377.389 252.883 376.291 252.459 375.423 251.714C374.555 250.97 373.969 249.949 373.764 248.824L373.201 245.274" stroke="#263238" stroke-linecap="round" stroke-linejoin="round"/>
<path d="M405.591 252.914H399.536" stroke="#263238" stroke-linecap="round" stroke-linejoin="round"/>
<path d="M383.565 222.328H405.718C406.86 222.365 407.955 222.792 408.821 223.539C409.687 224.285 410.27 225.306 410.475 226.43L414.082 248.824C414.178 249.327 414.16 249.846 414.031 250.341C413.901 250.837 413.662 251.297 413.332 251.689C413.002 252.081 412.588 252.394 412.122 252.606C411.656 252.818 411.148 252.923 410.635 252.914" stroke="#263238" stroke-linecap="round" stroke-linejoin="round"/>
<path d="M388.805 219.456H378.556C377.697 219.456 376.859 219.725 376.16 220.226C375.461 220.727 374.937 221.434 374.661 222.248" stroke="#263238" stroke-linecap="round" stroke-linejoin="round"/>
<path d="M414.702 237.621V223.569C414.702 222.533 414.308 221.535 413.6 220.778C412.891 220.02 411.922 219.56 410.888 219.49L409.888 216.917C409.796 216.686 409.637 216.488 409.433 216.347C409.229 216.206 408.987 216.129 408.739 216.124H398.261C398.012 216.129 397.771 216.206 397.567 216.347C397.362 216.488 397.204 216.686 397.112 216.917L396.123 219.456H392.171" stroke="#263238" stroke-linecap="round" stroke-linejoin="round"/>
<path d="M410.636 252.914C411.175 252.916 411.71 252.811 412.209 252.605C412.708 252.4 413.162 252.098 413.544 251.717C413.926 251.336 414.229 250.883 414.436 250.385C414.643 249.886 414.749 249.352 414.749 248.813V240.344" stroke="#263238" stroke-linecap="round" stroke-linejoin="round"/>
<path d="M75.0522 170.165H42.9611C41.8174 170.128 40.7205 169.702 39.853 168.955C38.9855 168.209 38.3996 167.188 38.1928 166.063L34.631 143.669C34.5353 143.166 34.553 142.647 34.6828 142.152C34.8126 141.656 35.0513 141.196 35.3814 140.804C35.7116 140.412 36.1249 140.099 36.5914 139.887C37.0578 139.675 37.5657 139.57 38.0779 139.579H70.1805C71.3219 139.613 72.417 140.038 73.2827 140.782C74.1485 141.527 74.7326 142.546 74.9373 143.669L78.5106 166.063C78.6085 166.568 78.5921 167.088 78.4625 167.586C78.333 168.084 78.0936 168.547 77.7619 168.94C77.4302 169.334 77.0147 169.648 76.5458 169.86C76.077 170.071 75.5666 170.176 75.0522 170.165Z" stroke="#263238" stroke-linecap="round" stroke-linejoin="round"/>
<path d="M75.0522 170.165C76.1432 170.165 77.1894 169.731 77.9608 168.96C78.7322 168.188 79.1656 167.142 79.1656 166.051V140.774C79.165 139.737 78.7708 138.739 78.0627 137.982C77.3546 137.225 76.3853 136.765 75.351 136.695L74.3514 134.121C74.2602 133.89 74.1022 133.691 73.8976 133.55C73.693 133.409 73.451 133.331 73.2024 133.328H62.7007C62.4521 133.331 62.2101 133.409 62.0055 133.55C61.8009 133.691 61.6429 133.89 61.5517 134.121L60.5636 136.66H42.9612C42.1023 136.672 41.2686 136.952 40.5766 137.461C39.8845 137.97 39.3685 138.682 39.1006 139.498" stroke="#263238" stroke-linecap="round" stroke-linejoin="round"/>
<path d="M312.834 258.855C316.21 258.855 318.947 256.118 318.947 252.742C318.947 249.366 316.21 246.629 312.834 246.629C309.458 246.629 306.722 249.366 306.722 252.742C306.722 256.118 309.458 258.855 312.834 258.855Z" fill="white" stroke="#263238" stroke-linecap="round" stroke-linejoin="round"/>
<path d="M311.686 250.444C311.915 250.475 312.147 250.417 312.335 250.282C312.522 250.148 312.652 249.947 312.697 249.72H313.306V255.545H312.398V251.11H311.686V250.444Z" fill="#263238"/>
<path d="M383.565 252.742C383.567 253.951 383.211 255.134 382.54 256.141C381.87 257.148 380.916 257.933 379.8 258.397C378.683 258.862 377.453 258.985 376.267 258.75C375.08 258.515 373.99 257.934 373.134 257.08C372.278 256.225 371.695 255.136 371.458 253.95C371.221 252.764 371.342 251.535 371.804 250.417C372.266 249.299 373.05 248.344 374.055 247.672C375.061 247 376.243 246.641 377.452 246.641C379.072 246.641 380.625 247.283 381.771 248.427C382.917 249.571 383.562 251.123 383.565 252.742Z" fill="white" stroke="#263238" stroke-linecap="round" stroke-linejoin="round"/>
<path d="M377.476 250.479C377.189 250.479 377.005 250.639 377.005 251.053V251.673H376.166V251.11C376.166 250.18 376.626 249.651 377.533 249.651C378.441 249.651 378.889 250.18 378.889 251.11C378.868 251.552 378.755 251.985 378.557 252.381C378.359 252.776 378.081 253.126 377.74 253.408C377.2 253.983 377.051 254.259 377.051 254.557V254.684H378.786V255.546H376.166V254.833C376.178 254.477 376.265 254.126 376.421 253.806C376.578 253.485 376.8 253.201 377.074 252.972C377.346 252.752 377.568 252.476 377.725 252.163C377.881 251.849 377.969 251.506 377.981 251.156C377.958 250.628 377.775 250.479 377.476 250.479Z" fill="#263238"/>
<path d="M318.947 308.284C318.949 309.493 318.593 310.676 317.922 311.683C317.252 312.69 316.298 313.475 315.181 313.939C314.065 314.404 312.835 314.526 311.649 314.292C310.462 314.057 309.372 313.476 308.516 312.622C307.66 311.767 307.077 310.678 306.84 309.492C306.603 308.306 306.724 307.076 307.186 305.959C307.648 304.841 308.432 303.886 309.437 303.214C310.443 302.541 311.625 302.183 312.834 302.183C314.453 302.183 316.006 302.825 317.152 303.969C318.298 305.113 318.944 306.665 318.947 308.284Z" fill="white" stroke="#263238" stroke-linecap="round" stroke-linejoin="round"/>
<path d="M313.282 306.687C313.282 306.17 313.099 306.02 312.811 306.02C312.524 306.02 312.34 306.181 312.34 306.595V306.974H311.479V306.652C311.479 305.722 311.938 305.193 312.834 305.193C313.026 305.177 313.219 305.205 313.398 305.274C313.578 305.343 313.739 305.452 313.871 305.592C314.002 305.732 314.1 305.901 314.158 306.084C314.215 306.268 314.23 306.462 314.202 306.652V306.802C314.225 307.036 314.176 307.272 314.061 307.477C313.946 307.683 313.77 307.848 313.558 307.951C313.783 308.057 313.967 308.233 314.083 308.452C314.199 308.672 314.24 308.923 314.202 309.169V309.628C314.23 309.818 314.215 310.013 314.158 310.196C314.1 310.38 314.002 310.548 313.871 310.688C313.739 310.829 313.578 310.937 313.398 311.007C313.219 311.076 313.026 311.103 312.834 311.087C311.938 311.087 311.479 310.547 311.479 309.628V309.146H312.34V309.686C312.34 310.099 312.524 310.26 312.811 310.26C313.099 310.26 313.282 310.111 313.282 309.594V309.146C313.282 308.605 313.099 308.399 312.685 308.399H312.375V307.571H312.731C313.076 307.571 313.282 307.422 313.282 306.951V306.687Z" fill="#263238"/>
<path d="M383.565 308.284C383.567 309.493 383.211 310.676 382.54 311.683C381.87 312.69 380.916 313.475 379.8 313.939C378.683 314.404 377.453 314.526 376.267 314.292C375.08 314.057 373.99 313.476 373.134 312.622C372.278 311.767 371.695 310.678 371.458 309.492C371.221 308.306 371.342 307.076 371.804 305.959C372.266 304.841 373.05 303.886 374.055 303.214C375.061 302.541 376.243 302.183 377.452 302.183C379.072 302.183 380.625 302.825 381.771 303.969C382.917 305.113 383.562 306.665 383.565 308.284Z" fill="white" stroke="#263238" stroke-linecap="round" stroke-linejoin="round"/>
<path d="M375.925 309.191L377.591 305.262H378.59V309.191H379.016V310.019H378.59V311.076H377.671V310.019H375.925V309.191ZM377.671 309.191V307.043L376.787 309.191H377.671Z" fill="#263238"/>
<path d="M194.776 44.6614H216.837" stroke="#263238" stroke-linecap="round" stroke-linejoin="round"/>
<path d="M185.986 59.5407V44.6614H191.145" stroke="#263238" stroke-linecap="round" stroke-linejoin="round"/>
<path d="M190.387 93.5965H185.986V62.2408" stroke="#263238" stroke-linecap="round" stroke-linejoin="round"/>
<path d="M198.418 93.5965H192.88" stroke="#263238" stroke-linecap="round" stroke-linejoin="round"/>
<path d="M227.557 92.8152V93.5965H204.175" stroke="#263238" stroke-linecap="round" stroke-linejoin="round"/>
<path d="M227.557 55.3928V89.8393" stroke="#263238" stroke-linecap="round" stroke-linejoin="round"/>
<path d="M234.45 48.4989V86.7026H192.88V37.7675H223.73L230.934 44.9831L234.45 48.4989Z" fill="white" stroke="#263238" stroke-linecap="round" stroke-linejoin="round"/>
<path d="M234.45 48.4989H223.73V37.7675L230.935 44.9831L234.45 48.4989Z" fill="white" stroke="#263238" stroke-linecap="round" stroke-linejoin="round"/>
<path d="M213.665 57.0129V67.4687" stroke="#263238" stroke-linecap="round" stroke-linejoin="round"/>
<path d="M218.893 62.2408H208.438" stroke="#263238" stroke-linecap="round" stroke-linejoin="round"/>
<path d="M326.669 166.761H342.359" stroke="#263238" stroke-linecap="round" stroke-linejoin="round"/>
<path d="M320.417 177.343V166.761H324.086" stroke="#263238" stroke-linecap="round" stroke-linejoin="round"/>
<path d="M323.547 201.565H320.417V179.264" stroke="#263238" stroke-linecap="round" stroke-linejoin="round"/>
<path d="M329.259 201.565H325.32" stroke="#263238" stroke-linecap="round" stroke-linejoin="round"/>
<path d="M349.984 201.01V201.565H333.354" stroke="#263238" stroke-linecap="round" stroke-linejoin="round"/>
<path d="M349.983 174.393V198.893" stroke="#263238" stroke-linecap="round" stroke-linejoin="round"/>
<path d="M354.887 169.49V196.662H325.32V161.858H347.262L352.386 166.99L354.887 169.49Z" fill="white" stroke="#263238" stroke-linecap="round" stroke-linejoin="round"/>
<path d="M354.886 169.49H347.262V161.858L352.386 166.99L354.886 169.49Z" fill="white" stroke="#263238" stroke-linecap="round" stroke-linejoin="round"/>
<path d="M340.104 175.546V182.982" stroke="#263238" stroke-linecap="round" stroke-linejoin="round"/>
<path d="M343.821 179.264H336.385" stroke="#263238" stroke-linecap="round" stroke-linejoin="round"/>
<path d="M172.935 113.092V161.288H120.494V99.5586H159.402L168.502 108.659L172.935 113.092Z" fill="#9AC5E3" stroke="#263238" stroke-linecap="round" stroke-linejoin="round"/>
<path d="M132.155 108.838H166.164" stroke="#263238" stroke-linecap="round" stroke-linejoin="round"/>
<path d="M127.364 115.009H166.165" stroke="#263238" stroke-linecap="round" stroke-linejoin="round"/>
<path d="M127.364 121.189H166.165" stroke="#263238" stroke-linecap="round" stroke-linejoin="round"/>
<path d="M127.364 127.36H166.165" stroke="#263238" stroke-linecap="round" stroke-linejoin="round"/>
<path d="M127.364 133.531H166.165" stroke="#263238" stroke-linecap="round" stroke-linejoin="round"/>
<path d="M127.364 139.711H166.165" stroke="#263238" stroke-linecap="round" stroke-linejoin="round"/>
<path d="M127.364 145.882H166.165" stroke="#263238" stroke-linecap="round" stroke-linejoin="round"/>
<path d="M127.364 152.062H161.382" stroke="#263238" stroke-linecap="round" stroke-linejoin="round"/>
<path d="M172.936 113.092H159.402V99.5586L168.502 108.659L172.936 113.092Z" fill="#9AC5E3" stroke="#263238" stroke-linecap="round" stroke-linejoin="round"/>
<path d="M344.707 97.7762V145.972H292.266V84.2427H331.173L340.273 93.3426L344.707 97.7762Z" fill="#9AC5E3" stroke="#263238" stroke-linecap="round" stroke-linejoin="round"/>
<path d="M303.927 93.5217H337.944" stroke="#263238" stroke-linecap="round" stroke-linejoin="round"/>
<path d="M299.144 99.6929H337.944" stroke="#263238" stroke-linecap="round" stroke-linejoin="round"/>
<path d="M299.144 105.873H337.944" stroke="#263238" stroke-linecap="round" stroke-linejoin="round"/>
<path d="M299.144 112.044H337.944" stroke="#263238" stroke-linecap="round" stroke-linejoin="round"/>
<path d="M299.144 118.224H337.944" stroke="#263238" stroke-linecap="round" stroke-linejoin="round"/>
<path d="M299.144 124.395H337.944" stroke="#263238" stroke-linecap="round" stroke-linejoin="round"/>
<path d="M299.144 130.567H337.944" stroke="#263238" stroke-linecap="round" stroke-linejoin="round"/>
<path d="M299.144 136.747H333.152" stroke="#263238" stroke-linecap="round" stroke-linejoin="round"/>
<path d="M344.706 97.7762H331.173V84.2427L340.273 93.3426L344.706 97.7762Z" fill="#9AC5E3" stroke="#263238" stroke-linecap="round" stroke-linejoin="round"/>
<path d="M350.376 148.346V153.72H345.002" stroke="#263238" stroke-linecap="round" stroke-linejoin="round"/>
<path d="M334.397 153.719H297.271" stroke="#263238" stroke-linecap="round" stroke-linejoin="round" stroke-dasharray="11.84 11.84"/>
<path d="M291.97 153.72H286.596V148.346" stroke="#263238" stroke-linecap="round" stroke-linejoin="round"/>
<path d="M286.596 138.851V86.6161" stroke="#263238" stroke-linecap="round" stroke-linejoin="round" stroke-dasharray="10.6 10.6"/>
<path d="M286.596 81.8601V76.4861H291.97" stroke="#263238" stroke-linecap="round" stroke-linejoin="round"/>
<path d="M302.574 76.4861H339.7" stroke="#263238" stroke-linecap="round" stroke-linejoin="round" stroke-dasharray="11.84 11.84"/>
<path d="M345.002 76.4861H350.376V81.8601" stroke="#263238" stroke-linecap="round" stroke-linejoin="round"/>
<path d="M350.376 91.3632V143.599" stroke="#263238" stroke-linecap="round" stroke-linejoin="round" stroke-dasharray="10.6 10.6"/>
<path d="M179.34 131.865L274.845 116.854" stroke="#263238" stroke-linecap="round" stroke-linejoin="round" stroke-dasharray="12 12"/>
<path d="M276.743 116.415L273.823 115.295L274.513 118.609L276.743 116.415Z" fill="#263238"/>
<path d="M180.316 131.874C180.316 132.067 180.259 132.256 180.151 132.417C180.044 132.577 179.892 132.702 179.713 132.776C179.535 132.85 179.338 132.869 179.149 132.832C178.96 132.794 178.786 132.701 178.649 132.565C178.513 132.428 178.42 132.254 178.382 132.065C178.344 131.875 178.364 131.679 178.438 131.501C178.511 131.322 178.637 131.17 178.797 131.063C178.958 130.955 179.146 130.898 179.34 130.898C179.468 130.897 179.596 130.921 179.715 130.97C179.834 131.019 179.942 131.09 180.033 131.181C180.123 131.272 180.195 131.38 180.244 131.499C180.293 131.618 180.317 131.746 180.316 131.874Z" fill="#263238"/>
<path d="M353.89 84.4179C356.979 81.3294 356.979 76.3219 353.89 73.2333C350.802 70.1447 345.794 70.1447 342.706 73.2333C339.617 76.3218 339.617 81.3294 342.706 84.4179C345.794 87.5065 350.802 87.5065 353.89 84.4179Z" fill="white" stroke="#263238" stroke-linecap="round" stroke-linejoin="round"/>
<path d="M348.307 74.7486V82.8992" stroke="#263238" stroke-linecap="round" stroke-linejoin="round"/>
<path d="M352.382 78.8239H344.231" stroke="#263238" stroke-linecap="round" stroke-linejoin="round"/>
<path d="M170.357 231.759C169.413 231.759 167.574 229.169 166.503 227.522C166.503 230.928 166.503 239.627 168.014 239.067C169.837 238.371 171.756 231.759 170.357 231.759Z" fill="white" stroke="#263238" stroke-linecap="round" stroke-linejoin="round"/>
<path d="M166.231 255.625C165.647 256.297 164.931 256.841 164.128 257.224C161.794 258.424 158.276 258.991 154.238 258.823C137.959 258.2 113.174 245.823 122.904 215.241C128.869 196.468 156.021 202.72 162.953 209.868C165.352 212.37 167.406 217.631 168.702 223.804C169.173 226.058 168.23 228.433 168.494 230.84C168.726 233.014 170.189 235.213 170.229 237.38C170.365 244.983 169.197 252.003 166.231 255.625Z" fill="white" stroke="#263238" stroke-linecap="round" stroke-linejoin="round"/>
<path d="M164.128 257.232C161.793 258.432 158.275 258.999 154.237 258.831C155.084 257.429 156.002 256.07 156.988 254.762C156.988 254.762 162.361 255.569 164.128 257.232Z" fill="#263238"/>
<path d="M159.186 254.65C159.186 254.65 157.707 273.167 160.146 277.341C162.584 281.514 139.086 285.696 129.684 277.341C129.684 277.341 135.056 263.557 134.537 250.244" fill="white"/>
<path d="M159.186 254.65C159.186 254.65 157.707 273.167 160.146 277.341C162.584 281.514 139.086 285.696 129.684 277.341C129.684 277.341 135.056 263.557 134.537 250.244" stroke="#263238" stroke-linecap="round" stroke-linejoin="round"/>
<path d="M162.953 219.302C162.953 219.302 170.269 216.2 167.798 205.934C164.32 191.455 156.485 200.401 153.878 198.243C149.824 194.901 142.045 191.846 135.777 197.131C129.508 202.416 125.686 203.008 117.683 210.548C109.68 218.087 109.688 234.989 117.683 241.673C125.678 248.358 127.773 255.393 135.433 257.624C143.092 259.855 154.51 256.825 156.804 251.044C158.125 247.927 158.902 244.606 159.099 241.226C159.099 241.226 165.743 229.489 162.953 219.302Z" fill="#263238"/>
<path d="M162.409 237.316C162.409 237.316 160.754 230.12 159.707 229.568C158.659 229.017 155.445 235.277 155.533 237.772C155.621 240.266 159.011 244.712 160.666 245.767C162.321 246.822 162.897 243.856 162.953 243.504" fill="white"/>
<path d="M162.409 237.316C162.409 237.316 160.754 230.12 159.707 229.568C158.659 229.017 155.445 235.277 155.533 237.772C155.621 240.266 159.011 244.712 160.666 245.767C162.321 246.822 162.897 243.856 162.953 243.504" stroke="#263238" stroke-linecap="round" stroke-linejoin="round"/>
<path d="M160.058 233.574C160.058 233.574 158.747 237.844 160.666 241.314" stroke="#263238" stroke-linecap="round" stroke-linejoin="round"/>
<path opacity="0.2" d="M161.889 211.059C161.697 213.346 161.089 216.088 159.187 217.559" stroke="white" stroke-linecap="round" stroke-linejoin="round"/>
<path opacity="0.2" d="M149.081 202.064C151.648 200.905 155.197 199.506 158.028 200.242C161.53 201.161 161.938 206.142 161.97 209.124" stroke="white" stroke-linecap="round" stroke-linejoin="round"/>
<path opacity="0.2" d="M154.518 223.868C154.129 225.134 153.615 226.358 152.982 227.522" stroke="white" stroke-linecap="round" stroke-linejoin="round"/>
<path opacity="0.2" d="M142.117 207.965C145.315 207.061 149.257 206.446 152.015 208.709C155.605 211.659 155.853 217.895 155.006 222.069" stroke="white" stroke-linecap="round" stroke-linejoin="round"/>
<path opacity="0.2" d="M145.267 219.622C148.025 224.675 147.977 234.997 141.597 237.444" stroke="white" stroke-linecap="round" stroke-linejoin="round"/>
<path opacity="0.2" d="M136.225 213.874C138.943 212.219 142.861 216.168 144.276 218.071" stroke="white" stroke-linecap="round" stroke-linejoin="round"/>
<path opacity="0.2" d="M143.348 198.354C142.873 197.728 142.223 197.256 141.481 196.998C140.739 196.739 139.936 196.705 139.175 196.899" stroke="white" stroke-linecap="round" stroke-linejoin="round"/>
<path opacity="0.2" d="M145.682 203.04C145.376 201.925 144.936 200.851 144.371 199.842" stroke="white" stroke-linecap="round" stroke-linejoin="round"/>
<path opacity="0.2" d="M137.695 208.836C137.695 208.836 138.119 200.593 132.099 202.856" stroke="white" stroke-linecap="round" stroke-linejoin="round"/>
<path opacity="0.2" d="M125.407 208.9C124.192 208.724 122.953 208.951 121.881 209.548" stroke="white" stroke-linecap="round" stroke-linejoin="round"/>
<path opacity="0.2" d="M130.42 214.297C129.832 212.286 128.544 210.551 126.79 209.404" stroke="white" stroke-linecap="round" stroke-linejoin="round"/>
<path opacity="0.2" d="M125.687 242.113C126.57 242.751 127.522 243.287 128.525 243.712" stroke="white" stroke-linecap="round" stroke-linejoin="round"/>
<path opacity="0.2" d="M122.128 222.405C120.529 227.522 119.961 236.796 124.223 240.946" stroke="white" stroke-linecap="round" stroke-linejoin="round"/>
<path opacity="0.2" d="M130.419 217.343C126.973 215.744 124.127 217.663 122.72 220.893" stroke="white" stroke-linecap="round" stroke-linejoin="round"/>
<path d="M127.573 270.904L131.483 259.599C131.483 259.599 159.739 255.881 166.495 265.252C173.251 274.622 127.573 270.904 127.573 270.904Z" fill="#9AC5E3" stroke="#263238" stroke-linecap="round" stroke-linejoin="round"/>
<path d="M76.9624 254.65C76.9624 254.65 73.7642 249.413 74.0201 248.078C74.2759 246.742 73.4604 240.498 74.0201 237.476C74.5958 234.278 76.9704 234.989 76.9704 234.989C76.9704 234.989 77.9378 228.897 80.4643 229.345C80.4643 229.345 80.8081 221.877 81.7116 220.294C82.6151 218.711 83.0708 217.735 83.0708 217.735C83.0708 217.735 84.8778 216.936 84.8778 219.622V227.306L86.9086 219.166L89.8509 215.113C90.4494 215.829 90.8046 216.717 90.865 217.648C90.9254 218.58 90.6878 219.506 90.1867 220.294C88.9394 222.548 90.1867 236.572 90.1867 236.572C91.039 236.348 91.8254 235.923 92.4805 235.334C93.1355 234.744 93.6402 234.006 93.9525 233.182C93.9525 233.182 94.9839 230.312 97.6304 229.6C100.277 228.889 97.8063 232.047 96.8308 236.572C95.8554 241.098 89.683 251.036 86.5008 253.075" fill="white"/>
<path d="M76.9624 254.65C76.9624 254.65 73.7642 249.413 74.0201 248.078C74.2759 246.742 73.4604 240.498 74.0201 237.476C74.5958 234.278 76.9704 234.989 76.9704 234.989C76.9704 234.989 77.9378 228.897 80.4643 229.345C80.4643 229.345 80.8081 221.877 81.7116 220.294C82.6151 218.711 83.0708 217.735 83.0708 217.735C83.0708 217.735 84.8778 216.936 84.8778 219.622V227.306L86.9086 219.166L89.8509 215.113C90.4495 215.829 90.8046 216.717 90.865 217.648C90.9254 218.58 90.6878 219.506 90.1867 220.294C88.9394 222.548 90.1867 236.572 90.1867 236.572C91.039 236.348 91.8254 235.923 92.4805 235.334C93.1355 234.744 93.6402 234.006 93.9525 233.182C93.9525 233.182 94.9839 230.312 97.6304 229.6C100.277 228.889 97.8063 232.047 96.8308 236.572C95.8554 241.098 89.683 251.036 86.5008 253.075" stroke="#263238" stroke-linecap="round" stroke-linejoin="round"/>
<path d="M88.2122 249.325L80.3447 294.467L104.539 280.347L99.6295 315.223C99.6295 315.223 68.4956 329.614 61.4997 331.125C54.5038 332.636 52.7528 312.736 53.8002 307.475C54.8476 302.214 74.1563 262.429 76.5549 251.196" fill="white"/>
<path d="M88.2122 249.325L80.3447 294.467L104.539 280.347L99.6295 315.223C99.6295 315.223 68.4956 329.614 61.4997 331.125C54.5038 332.636 52.7528 312.736 53.8002 307.475C54.8476 302.214 74.1563 262.429 76.5549 251.196" stroke="#263238" stroke-linecap="round" stroke-linejoin="round"/>
<path d="M61.9238 303.621C65.9721 300.442 70.5525 298.005 75.452 296.426" stroke="#263238" stroke-linecap="round" stroke-linejoin="round"/>
<path d="M113.181 271.632L112.142 304.149L111.678 318.661L88.0201 324.601L81.7118 326.2C68.6873 317.405 70.6062 294.555 70.6062 294.555L76.9545 289.989L80.7603 290.749C80.7603 290.749 104.698 272.967 113.181 271.632Z" fill="#9AC5E3"/>
<mask id="mask0_4_4442" style="mask-type:luminance" maskUnits="userSpaceOnUse" x="70" y="271" width="44" height="56">
<path d="M113.181 271.632L112.142 304.149L111.678 318.661L88.0201 324.601L81.7118 326.2C68.6873 317.405 70.6062 294.555 70.6062 294.555L76.9545 289.989L80.7603 290.749C80.7603 290.749 104.698 272.967 113.181 271.632Z" fill="white"/>
</mask>
<g mask="url(#mask0_4_4442)">
<path opacity="0.2" d="M112.142 304.149L111.678 318.661L88.0199 324.601C85.9331 318.309 90.2506 320.036 90.2506 320.036C88.8382 317.899 88.0695 315.401 88.0359 312.84L92.3934 314.847C89.7629 308.203 94.2003 300.735 94.2003 300.735L94.9998 307.931C94.2003 300.735 102.715 288.622 102.715 288.622C102.715 288.622 108.952 293.547 112.142 304.149Z" fill="black" fill-opacity="0.7"/>
</g>
<path d="M113.181 271.632L112.142 304.149L111.678 318.661L88.0201 324.601L81.7118 326.2C68.6873 317.405 70.6062 294.555 70.6062 294.555L76.9545 289.989L80.7603 290.749C80.7603 290.749 104.698 272.967 113.181 271.632Z" stroke="#263238" stroke-linecap="round" stroke-linejoin="round"/>
<path d="M93.4172 304.381C93.4172 304.381 93.3293 311.089 96.5354 316.622" stroke="#263238" stroke-linecap="round" stroke-linejoin="round"/>
<path d="M88.0361 314.879C88.0361 314.879 93.1212 321.099 96.7511 322.418" stroke="#263238" stroke-linecap="round" stroke-linejoin="round"/>
<path d="M80.7607 290.717C80.7607 290.717 76.5871 299.4 78.9937 307.931" stroke="#263238" stroke-linecap="round" stroke-linejoin="round"/>
<path d="M101.621 282.162C98.0307 292.732 96.8234 312.072 96.5835 330.262C96.2797 352.865 97.479 373.693 97.479 373.693C116.332 405.73 158.851 392.458 174.234 386.317H174.314C177.832 384.902 179.911 383.879 179.911 383.879C184.3 365.923 187.658 347.73 189.969 329.39C192.983 305.092 193.055 286.959 192.52 275.598C192.366 270.927 191.947 266.269 191.264 261.646C191.264 261.646 177.792 261.814 161.874 262.941C153.255 263.549 143.924 264.428 135.625 265.715C130.402 266.494 125.242 267.648 120.186 269.169C117.483 269.969 113.054 271.496 111.079 272.232C109.959 272.706 108.865 273.24 107.801 273.831" fill="#9AC5E3"/>
<path opacity="0.2" d="M161.825 262.909C153.111 266.651 139.662 271.272 134.745 271.12C129.372 270.96 122.936 270.569 120.138 269.137C125.194 267.617 130.354 266.462 135.577 265.683C143.876 264.396 153.206 263.517 161.825 262.909Z" fill="black" fill-opacity="0.7"/>
<path opacity="0.2" d="M174.202 386.317C158.851 392.458 116.332 405.73 97.4468 373.693C97.4468 373.693 96.2474 352.865 96.5513 330.262C102.612 342.735 122.584 350.81 122.584 350.81C122.584 350.81 120.377 326.368 122.584 320.468C124.791 314.567 131.051 280.267 131.051 280.267C131.051 280.267 133.45 287.151 129.652 305.916C125.854 324.681 127.541 350.81 127.541 350.81C136.848 352.833 159.155 350.81 159.155 350.81C143.132 373.565 107.737 377.402 107.737 377.402C132.219 397.958 172.211 386.885 174.202 386.317Z" fill="black" fill-opacity="0.7"/>
<path opacity="0.2" d="M189.929 329.358C189.257 324.049 188.626 320.044 188.626 320.044C187.027 332.652 170.38 336.698 174.282 332.436C178.184 328.175 185.14 314.847 185.14 314.847C181.558 304.405 187.402 273.783 187.402 273.783C187.402 273.783 189.433 274.334 192.479 275.534C193.015 286.927 192.943 305.06 189.929 329.358Z" fill="black" fill-opacity="0.7"/>
<path d="M179.871 383.855C184.26 365.899 187.618 347.706 189.929 329.366C192.943 305.068 193.015 286.935 192.479 275.574C192.325 270.903 191.906 266.245 191.224 261.622C191.224 261.622 177.752 261.79 161.833 262.917C153.214 263.525 143.884 264.404 135.585 265.691C130.362 266.47 125.202 267.624 120.146 269.145C117.443 269.945 113.014 271.472 111.039 272.208C109.919 272.682 108.824 273.216 107.761 273.807" stroke="#263238" stroke-linecap="round" stroke-linejoin="round"/>
<path d="M101.621 282.162C98.0307 292.732 96.8234 312.072 96.5835 330.262C96.2797 352.865 97.479 373.693 97.479 373.693" stroke="#263238" stroke-linecap="round" stroke-linejoin="round"/>
<path d="M163.8 262.773C163.8 262.773 134.521 274.446 127.573 273.767" stroke="#263238" stroke-linecap="round" stroke-linejoin="round"/>
<path d="M131.323 278.564C131.323 278.564 122.832 336.051 125.678 355.663C125.678 355.663 123.32 374.5 120.705 386.277" stroke="#263238" stroke-linecap="round" stroke-linejoin="round"/>
<path d="M104.539 345.877C104.539 345.877 103.26 354.728 125.718 355.679C148.177 356.63 160.706 347.452 160.706 347.452" stroke="#263238" stroke-linecap="round" stroke-linejoin="round"/>
<path d="M255.243 209.868C254.668 205.151 254.252 192.886 255.243 192.102C256.235 191.319 261.456 183.179 261.456 183.179C262.583 183.267 262.255 185.05 262.255 185.05C262.255 185.05 269.043 173.337 270.602 170.97C272.161 168.604 273.217 170.171 272.953 172.785C272.953 172.785 274.816 168.956 275.655 170.131C277.302 172.45 273.481 184.003 273.481 184.003C273.481 184.003 276.935 183.747 276.767 187.665C276.767 187.665 278.869 187.009 279.045 190.423C279.165 192.694 278.07 199.362 275.735 197.971C275.735 197.971 274.256 207.477 265.341 212.059" fill="white"/>
<path d="M255.243 209.868C254.668 205.151 254.252 192.886 255.243 192.102C256.235 191.319 261.456 183.179 261.456 183.179C262.583 183.267 262.255 185.05 262.255 185.05C262.255 185.05 269.043 173.337 270.602 170.97C272.161 168.604 273.217 170.171 272.953 172.785C272.953 172.785 274.816 168.956 275.655 170.131C277.302 172.45 273.481 184.003 273.481 184.003C273.481 184.003 276.935 183.747 276.767 187.665C276.767 187.665 278.869 187.009 279.045 190.423C279.165 192.694 278.07 199.362 275.735 197.971C275.735 197.971 274.256 207.477 265.341 212.059" stroke="#263238" stroke-linecap="round" stroke-linejoin="round"/>
<path d="M262.238 185.018C262.238 185.018 260.064 188.888 258.585 191.59C257.105 194.293 257.105 195.764 257.105 195.764" stroke="#263238" stroke-linecap="round" stroke-linejoin="round"/>
<path d="M272.937 172.785C272.937 172.785 267.884 183.483 266.845 185.018" stroke="#263238" stroke-linecap="round" stroke-linejoin="round"/>
<path d="M273.465 184.003C273.465 184.003 271.458 186.01 271.202 186.313" stroke="#263238" stroke-linecap="round" stroke-linejoin="round"/>
<path d="M276.751 187.665C276.751 187.665 275.951 188.312 274.68 189.36" stroke="#263238" stroke-linecap="round" stroke-linejoin="round"/>
<path d="M275.719 197.971C275.719 197.971 276.158 194.925 276.158 194.669C276.158 194.413 277.55 193.445 277.981 192.054" stroke="#263238" stroke-linecap="round" stroke-linejoin="round"/>
<path d="M255.699 205.894C255.699 205.894 254.3 210.404 244.905 227.482C235.511 244.56 231.665 254.122 231.665 254.122L213.779 259.023L218.401 287.655C218.401 287.655 249.255 271.368 250.262 269.185C251.269 267.003 258.873 243.816 261.456 233.31C264.038 222.804 267.252 209.98 267.252 209.98" fill="white"/>
<path d="M255.699 205.894C255.699 205.894 254.3 210.404 244.905 227.482C235.511 244.56 231.665 254.122 231.665 254.122L213.779 259.023L218.401 287.655C218.401 287.655 249.255 271.368 250.262 269.185C251.269 267.003 258.873 243.816 261.456 233.31C264.038 222.804 267.252 209.98 267.252 209.98" stroke="#263238" stroke-linecap="round" stroke-linejoin="round"/>
<path d="M229.114 275.83C227.515 282.298 224.541 285.792 222.022 287.655C220.734 288.674 219.234 289.393 217.633 289.757L191.248 304.381C191.248 304.381 185.651 291.652 187.042 276.781C187.504 271.503 188.929 266.354 191.248 261.59L216.609 257.104L218.96 254.754H223.133C223.133 254.754 232.248 263.205 229.114 275.83Z" fill="#9AC5E3"/>
<mask id="mask1_4_4442" style="mask-type:luminance" maskUnits="userSpaceOnUse" x="186" y="254" width="44" height="51">
<path d="M229.114 275.83C227.515 282.298 224.541 285.792 222.022 287.655C220.734 288.674 219.234 289.393 217.633 289.757L191.248 304.381C191.248 304.381 185.651 291.652 187.042 276.781C187.504 271.503 188.929 266.354 191.248 261.59L216.609 257.104L218.96 254.754H223.133C223.133 254.754 232.248 263.205 229.114 275.83Z" fill="white"/>
</mask>
<g mask="url(#mask1_4_4442)">
<path opacity="0.2" d="M222.022 287.655C220.734 288.674 219.234 289.393 217.633 289.757L191.248 304.381C191.248 304.381 185.651 291.652 187.042 276.781C192.024 277.341 190.377 294.123 192.128 294.315C194.022 294.531 202.25 282.162 203.937 282.162C206.631 282.162 204.025 293.939 203.937 294.315C204.304 294.187 216.074 289.781 219.464 283.353C221.143 280.163 222.366 282.881 222.022 287.655Z" fill="black" fill-opacity="0.7"/>
</g>
<path d="M229.114 275.83C227.515 282.298 224.541 285.792 222.022 287.655C220.734 288.674 219.234 289.393 217.633 289.757L191.248 304.381C191.248 304.381 185.651 291.652 187.042 276.781C187.504 271.503 188.929 266.354 191.248 261.59L216.609 257.104L218.96 254.754H223.133C223.133 254.754 232.248 263.205 229.114 275.83Z" stroke="#263238" stroke-linecap="round" stroke-linejoin="round"/>
<path d="M216.586 257.128C218.73 259.407 220.344 262.133 221.312 265.109C222.279 268.085 222.577 271.238 222.183 274.342" stroke="#263238" stroke-linecap="round" stroke-linejoin="round"/>
<path d="M201.282 287.655C201.282 287.655 193.559 297.833 191.224 304.381C191.224 304.381 184.828 325.401 175.969 331.205" stroke="#263238" stroke-linecap="round" stroke-linejoin="round"/>
<path d="M231.665 254.122C231.665 254.122 235.735 252.931 237.949 254.65" stroke="#263238" stroke-linecap="round" stroke-linejoin="round"/>
</svg>
