<svg width="17" height="18" viewBox="0 0 17 18" fill="none" xmlns="http://www.w3.org/2000/svg">
<path d="M16.5976 10.5923L15.9946 10.2441C16.0958 9.74033 16.1471 9.2359 16.1471 8.74197C16.1471 8.24085 16.0967 7.73594 15.9971 7.23835L16.5976 6.89161C16.7836 6.78425 16.9167 6.61084 16.9723 6.4034C17.0278 6.19595 16.9993 5.97927 16.8919 5.79327L15.2496 2.94866C15.1422 2.76267 14.9688 2.6296 14.7614 2.57404C14.5539 2.51847 14.3373 2.54697 14.1512 2.65438L13.5502 3.00139C12.791 2.33347 11.8975 1.81655 10.9464 1.49493V0.804056C10.9464 0.360696 10.5857 0 10.1423 0H6.85769C6.41433 0 6.05363 0.360696 6.05363 0.804056V1.49496C5.10759 1.81528 4.21532 2.33289 3.45332 3.00344L2.84877 2.65438C2.66274 2.54697 2.44606 2.51844 2.23861 2.57404C2.03117 2.62964 1.8578 2.76267 1.7504 2.94866L0.108072 5.79327C0.000670434 5.97927 -0.0278308 6.19595 0.0277346 6.4034C0.0833 6.61084 0.216363 6.78425 0.402356 6.89161L1.00543 7.23982C0.904224 7.74357 0.852935 8.248 0.852935 8.74197C0.852935 9.24301 0.903368 9.74793 1.00293 10.2456L0.40239 10.5923C0.0184281 10.814 -0.113574 11.3067 0.108072 11.6907L1.7504 14.5353C1.97208 14.9192 2.46478 15.0512 2.84877 14.8296L3.44976 14.4825C4.20899 15.1505 5.10245 15.6674 6.05363 15.989V16.6799C6.05363 17.1232 6.41433 17.4839 6.85769 17.4839H10.1423C10.5857 17.4839 10.9464 17.1232 10.9464 16.6799V15.989C11.8925 15.6686 12.7847 15.151 13.5467 14.4805L14.1513 14.8296C14.5352 15.0512 15.028 14.9192 15.2496 14.5353L16.892 11.6907C17.1136 11.3067 16.9816 10.814 16.5976 10.5923ZM16.4475 11.434L14.8051 14.2786C14.725 14.4175 14.5468 14.4653 14.4079 14.3851L13.6417 13.9427C13.5444 13.8865 13.4217 13.9002 13.3392 13.9766C12.5559 14.701 11.6135 15.2476 10.6139 15.5573C10.5064 15.5906 10.4332 15.6899 10.4332 15.8024V16.6799C10.4332 16.8402 10.3027 16.9707 10.1423 16.9707H6.85769C6.69732 16.9707 6.56686 16.8402 6.56686 16.6799V15.8024C6.56686 15.69 6.49361 15.5906 6.38621 15.5573C5.38042 15.2457 4.43683 14.6998 3.65738 13.9787C3.60876 13.9337 3.54618 13.9104 3.48305 13.9104C3.43905 13.9104 3.39481 13.9217 3.35481 13.9448L2.59216 14.3851C2.45325 14.4652 2.27505 14.4175 2.19489 14.2786L0.552561 11.434C0.472394 11.2952 0.520159 11.1169 0.659004 11.0367L1.42104 10.5968C1.51835 10.5406 1.56779 10.4277 1.54305 10.3181C1.42566 9.79774 1.36616 9.26744 1.36616 8.74197C1.36616 8.22532 1.42655 7.69553 1.54569 7.16732C1.57039 7.05773 1.52095 6.94478 1.42368 6.88864L0.659004 6.44716C0.591737 6.40832 0.54363 6.34561 0.523512 6.27057C0.503428 6.19554 0.513726 6.11715 0.552561 6.04989L2.19489 3.20527C2.23372 3.13801 2.29644 3.08987 2.37151 3.06978C2.44651 3.04966 2.52493 3.06 2.59219 3.09883L3.35834 3.54116C3.45571 3.59741 3.57834 3.58366 3.66087 3.50732C4.44419 2.78289 5.38658 2.2363 6.38621 1.92662C6.49364 1.89333 6.5669 1.79397 6.5669 1.6815V0.804056C6.5669 0.643689 6.69736 0.513227 6.85772 0.513227H10.1424C10.3027 0.513227 10.4332 0.643689 10.4332 0.804056V1.6815C10.4332 1.79397 10.5065 1.89333 10.6139 1.92662C11.6196 2.23818 12.5632 2.78409 13.3427 3.50527C13.4252 3.58164 13.5479 3.59536 13.6453 3.53915L14.4079 3.09883C14.4752 3.06 14.5536 3.04966 14.6286 3.06978C14.7036 3.0899 14.7663 3.13801 14.8052 3.20527L16.4475 6.04989C16.4864 6.11715 16.4967 6.19554 16.4766 6.27057C16.4565 6.34561 16.4084 6.40832 16.3411 6.44716L15.5791 6.88713C15.4818 6.94331 15.4323 7.05626 15.457 7.16585C15.5744 7.68612 15.6339 8.21639 15.6339 8.74197C15.6339 9.25862 15.5736 9.7884 15.4544 10.3166C15.4297 10.4262 15.4792 10.5391 15.5764 10.5953L16.3411 11.0367C16.4799 11.1169 16.5277 11.2952 16.4475 11.434Z" fill="#0972BB"/>
<path d="M8.5 3.55859C5.64173 3.55859 3.31641 5.88396 3.31641 8.74219C3.31641 11.6004 5.64173 13.9258 8.5 13.9258C11.3583 13.9258 13.6836 11.6004 13.6836 8.74219C13.6836 5.88396 11.3583 3.55859 8.5 3.55859ZM8.5 13.4126C5.92476 13.4126 3.82963 11.3174 3.82963 8.74219C3.82963 6.16695 5.92476 4.07182 8.5 4.07182C11.0752 4.07182 13.1704 6.16695 13.1704 8.74219C13.1704 11.3174 11.0752 13.4126 8.5 13.4126Z" fill="#0972BB"/>
<path d="M9.4578 7.39062H8.49978C8.35806 7.39062 8.24316 7.50552 8.24316 7.64724V9.83701C8.24316 9.97873 8.35806 10.0936 8.49978 10.0936C8.6415 10.0936 8.75639 9.97873 8.75639 9.83701V9.27246H9.4578C9.97664 9.27246 10.3987 8.85038 10.3987 8.33154C10.3987 7.8127 9.97664 7.39062 9.4578 7.39062ZM9.4578 8.75923H8.75639V7.90385H9.4578C9.69365 7.90385 9.88549 8.0957 9.88549 8.33154C9.88549 8.56739 9.69365 8.75923 9.4578 8.75923Z" fill="#0972BB"/>
<path d="M7.09768 7.55715C7.06011 7.457 6.96437 7.39062 6.85742 7.39062H6.5837C6.47674 7.39062 6.38097 7.45697 6.34344 7.55715L5.52227 9.74692C5.47249 9.87961 5.53976 10.0275 5.67245 10.0773C5.80513 10.1271 5.95304 10.0598 6.00283 9.92713L6.14564 9.54618H7.29544L7.43829 9.9271C7.47692 10.0301 7.5747 10.0937 7.67858 10.0937C7.70852 10.0937 7.73897 10.0884 7.76864 10.0773C7.90132 10.0276 7.96859 9.87961 7.91881 9.74692L7.09768 7.55715ZM6.3381 9.03295L6.72056 8.0131L7.10301 9.03295H6.3381Z" fill="#0972BB"/>
<path d="M10.9636 7.39062C10.8219 7.39062 10.707 7.50552 10.707 7.64724V9.83701C10.707 9.97873 10.8219 10.0936 10.9636 10.0936C11.1054 10.0936 11.2203 9.97873 11.2203 9.83701V7.64724C11.2203 7.50552 11.1054 7.39062 10.9636 7.39062Z" fill="#0972BB"/>
<path d="M10.335 2.98651C10.5131 3.04327 10.6906 3.1092 10.8626 3.18242C10.8954 3.19638 10.9295 3.20299 10.963 3.20299C11.0628 3.20299 11.1577 3.14441 11.1993 3.04683C11.2548 2.91644 11.1941 2.76572 11.0637 2.71022C10.8769 2.63074 10.6842 2.55916 10.4908 2.49754C10.3559 2.4545 10.2115 2.52909 10.1684 2.6641C10.1254 2.79911 10.2 2.94347 10.335 2.98651Z" fill="#0972BB"/>
<path d="M3.19483 11.6299C3.12695 11.5055 2.97103 11.4596 2.84666 11.5275C2.72225 11.5954 2.6764 11.7513 2.74428 11.8757C2.85076 12.0708 2.96863 12.2628 3.09461 12.4463C3.14436 12.5187 3.22467 12.5576 3.30637 12.5576C3.35643 12.5576 3.407 12.543 3.45141 12.5125C3.56825 12.4323 3.59792 12.2726 3.51768 12.1557C3.40159 11.9867 3.29296 11.8097 3.19483 11.6299Z" fill="#0972BB"/>
<path d="M7.97464 14.758C6.59956 14.6395 5.29432 14.0437 4.29938 13.0801C4.19756 12.9815 4.03511 12.9841 3.93653 13.0859C3.83796 13.1877 3.84052 13.3502 3.94235 13.4488C5.02184 14.4942 6.43824 15.1408 7.93057 15.2693C7.93806 15.27 7.94548 15.2703 7.95287 15.2703C8.08464 15.2703 8.19673 15.1694 8.20826 15.0357C8.2204 14.8945 8.11581 14.7702 7.97464 14.758Z" fill="#0972BB"/>
<path d="M12.1924 3.32895C12.0754 3.24899 11.9157 3.27903 11.8358 3.39601C11.7558 3.51303 11.7859 3.67271 11.9028 3.75267C13.095 4.56743 13.9574 5.77985 14.3312 7.16652C14.362 7.281 14.4656 7.35641 14.5788 7.35641C14.6009 7.35641 14.6234 7.35354 14.6457 7.34752C14.7826 7.31063 14.8636 7.1698 14.8267 7.03298C14.4212 5.52819 13.4856 4.21276 12.1924 3.32895Z" fill="#0972BB"/>
</svg>
