<svg width="13" height="13" viewBox="0 0 13 13" fill="none" xmlns="http://www.w3.org/2000/svg">
<path fill-rule="evenodd" clip-rule="evenodd" d="M5.03033 0.21967C5.32322 0.512563 5.32322 0.987437 5.03033 1.28033L2.56066 3.75H8.25C9.44347 3.75 10.5881 4.22411 11.432 5.06802C12.2759 5.91193 12.75 7.05653 12.75 8.25C12.75 9.44347 12.2759 10.5881 11.432 11.432C10.5881 12.2759 9.44347 12.75 8.25 12.75H6.375C5.96079 12.75 5.625 12.4142 5.625 12C5.625 11.5858 5.96079 11.25 6.375 11.25H8.25C9.04565 11.25 9.80871 10.9339 10.3713 10.3713C10.9339 9.80871 11.25 9.04565 11.25 8.25C11.25 7.45435 10.9339 6.69129 10.3713 6.12868C9.80871 5.56607 9.04565 5.25 8.25 5.25H2.56066L5.03033 7.71967C5.32322 8.01256 5.32322 8.48744 5.03033 8.78033C4.73744 9.07322 4.26256 9.07322 3.96967 8.78033L0.21967 5.03033C-0.0732233 4.73744 -0.0732233 4.26256 0.21967 3.96967L3.96967 0.21967C4.26256 -0.0732233 4.73744 -0.0732233 5.03033 0.21967Z" fill="#0972BB"/>
</svg>
