<svg width="13" height="13" viewBox="0 0 13 13" fill="none" xmlns="http://www.w3.org/2000/svg">
<path fill-rule="evenodd" clip-rule="evenodd" d="M6.5 0C6.87788 0 7.18421 0.306331 7.18421 0.684211V7.75606L8.92408 6.01619C9.19129 5.74899 9.6245 5.74899 9.8917 6.01619C10.1589 6.28339 10.1589 6.71661 9.8917 6.98381L6.98381 9.8917C6.71661 10.1589 6.28339 10.1589 6.01619 9.8917L3.1083 6.98381C2.84109 6.71661 2.84109 6.28339 3.1083 6.01619C3.3755 5.74899 3.80871 5.74899 4.07591 6.01619L5.81579 7.75606V0.684211C5.81579 0.306331 6.12212 0 6.5 0ZM0.684211 8.72368C1.06209 8.72368 1.36842 9.03001 1.36842 9.40789V10.8618C1.36842 11.066 1.44952 11.2618 1.59387 11.4061C1.73823 11.5505 1.93401 11.6316 2.13816 11.6316H10.8618C11.066 11.6316 11.2618 11.5505 11.4061 11.4061C11.5505 11.2618 11.6316 11.066 11.6316 10.8618V9.40789C11.6316 9.03001 11.9379 8.72368 12.3158 8.72368C12.6937 8.72368 13 9.03001 13 9.40789V10.8618C13 11.4289 12.7747 11.9728 12.3737 12.3737C11.9728 12.7747 11.4289 13 10.8618 13H2.13816C1.57108 13 1.02723 12.7747 0.626252 12.3737C0.22527 11.9728 0 11.4289 0 10.8618V9.40789C0 9.03001 0.306331 8.72368 0.684211 8.72368Z" fill="#0972BB"/>
</svg>
