<svg width="15" height="11" viewBox="0 0 15 11" fill="none" xmlns="http://www.w3.org/2000/svg">
<path d="M12.3154 11H2.35643C1.05701 11 0 9.94299 0 8.64357V2.35643C0 1.05718 1.05717 0 2.35643 0H12.3154C13.6147 0 14.6717 1.05718 14.6717 2.35643V8.64357C14.6717 9.94299 13.6147 11 12.3154 11ZM2.35643 0.689079C1.43701 0.689079 0.689079 1.43701 0.689079 2.35643V8.64357C0.689079 9.56299 1.43701 10.3111 2.35643 10.3111H12.3154C13.2348 10.3111 13.9827 9.56299 13.9827 8.64357V2.35643C13.9827 1.43701 13.2348 0.689079 12.3154 0.689079H2.35643Z" fill="#6B7280"/>
<path d="M1.80036 2.38892C3.56161 4.10518 5.32286 5.82127 7.08411 7.53753C7.41243 7.85737 7.91632 7.35462 7.58751 7.03413C5.82626 5.31803 4.06501 3.60178 2.30376 1.88568C1.97544 1.56567 1.47155 2.06859 1.80036 2.38892Z" fill="#6B7280"/>
<path d="M7.58691 7.53751C9.34817 5.82141 11.1094 4.10516 12.8707 2.38906C13.1993 2.06873 12.6958 1.56565 12.3673 1.88566C10.606 3.60175 8.84476 5.31801 7.08351 7.03411C6.75487 7.35444 7.25843 7.85752 7.58691 7.53751Z" fill="#6B7280"/>
<path d="M12.8523 8.75256C11.6804 7.6411 10.5083 6.5298 9.33633 5.41834C9.00394 5.10322 8.49972 5.60565 8.83293 5.92174C10.0049 7.0332 11.177 8.1445 12.3489 9.25596C12.6813 9.57107 13.1855 9.06849 12.8523 8.75256Z" fill="#6B7280"/>
<path d="M2.35484 9.256C3.52678 8.14454 4.69888 7.03325 5.87082 5.92179C6.20387 5.60586 5.69998 5.10311 5.36742 5.41838C4.19548 6.52984 3.02338 7.64114 1.85144 8.7526C1.51839 9.06853 2.02228 9.57144 2.35484 9.256Z" fill="#6B7280"/>
</svg>
