<svg width="13" height="15" viewBox="0 0 13 15" fill="none" xmlns="http://www.w3.org/2000/svg">
<path d="M13 3.62061C12.9996 3.54142 12.9725 3.46448 12.9228 3.40132C12.873 3.33815 12.8032 3.29217 12.7239 3.27026L9.36733 0.134277C9.33169 0.0924917 9.28685 0.0587849 9.23604 0.0355708C9.18522 0.0123567 9.12969 0.000209785 9.07341 0L3.22042 0C3.03954 0 2.86607 0.0689346 2.73817 0.191639C2.61027 0.314344 2.53842 0.480767 2.53842 0.654297V2.49146H0.682001C0.501123 2.49146 0.327653 2.56039 0.199753 2.68309C0.0718534 2.8058 0 2.97222 0 3.14575L0 14.3457C0 14.5192 0.0718534 14.6857 0.199753 14.8084C0.327653 14.9311 0.501123 15 0.682001 15H9.78467C9.96489 14.999 10.1374 14.9297 10.2645 14.8071C10.3915 14.6845 10.4629 14.5186 10.4629 14.3457V12.5146H12.3193C12.4995 12.5137 12.672 12.4443 12.7991 12.3217C12.9261 12.1991 12.9975 12.0332 12.9975 11.8604C12.9975 9.1154 12.9975 6.37085 12.9975 3.62671L13 3.62061ZM3.29676 2.49146V0.732422H8.69169V3.69141C8.69169 3.78853 8.73191 3.88168 8.80349 3.95036C8.87508 4.01903 8.97217 4.05762 9.07341 4.05762H12.2378C12.2378 6.63086 12.2378 9.2041 12.2378 11.7773H10.4565V6.11084C10.4561 6.03166 10.429 5.95471 10.3793 5.89155C10.3295 5.82839 10.2597 5.78241 10.1804 5.7605L6.83146 2.62573C6.79637 2.58364 6.75183 2.54971 6.70115 2.52646C6.65048 2.5032 6.59498 2.49124 6.53881 2.49146H3.29676ZM6.91798 3.77075L9.19683 5.81909H6.91798V3.77075ZM0.763433 14.2688V3.21899H6.15836V6.18286C6.15836 6.27999 6.19858 6.37313 6.27017 6.44181C6.34175 6.51049 6.43884 6.54907 6.54008 6.54907H9.70324C9.70324 9.12394 9.70324 11.6972 9.70324 14.2688H0.763433ZM2.20505 8.50586C2.2301 8.47783 2.26112 8.45526 2.29601 8.43968C2.33091 8.4241 2.36887 8.41587 2.40736 8.41553H6.87981C6.91839 8.4157 6.95648 8.42373 6.99158 8.43909C7.02668 8.45446 7.05797 8.4768 7.08339 8.50464C7.13581 8.562 7.16435 8.63588 7.16355 8.71216C7.16364 8.78854 7.13469 8.86232 7.08212 8.91968C7.05686 8.94747 7.0258 8.96987 6.99095 8.98543C6.9561 9.00099 6.91824 9.00936 6.87981 9.01001H2.40736C2.3688 9.00976 2.33072 9.0017 2.29564 8.98634C2.26055 8.97098 2.22925 8.94868 2.20378 8.9209C2.15159 8.86335 2.12285 8.78965 2.12285 8.71338C2.12285 8.6371 2.15159 8.5634 2.20378 8.50586H2.20505ZM2.20505 12.0386C2.22985 12.0106 2.26064 11.988 2.29533 11.9724C2.33001 11.9568 2.36779 11.9486 2.40609 11.9482H8.12675C8.16524 11.9486 8.2032 11.9568 8.2381 11.9724C8.27299 11.988 8.30401 12.0105 8.32906 12.0386C8.38163 12.0959 8.41058 12.1697 8.41049 12.2461C8.41129 12.3224 8.38275 12.3963 8.33033 12.4536C8.30491 12.4815 8.27362 12.5038 8.23852 12.5192C8.20343 12.5345 8.16533 12.5426 8.12675 12.5427H2.40991C2.37153 12.5425 2.33365 12.5344 2.29877 12.519C2.2639 12.5037 2.23282 12.4814 2.2076 12.4536C2.15465 12.3964 2.12541 12.3226 2.12541 12.2461C2.12541 12.1696 2.15465 12.0958 2.2076 12.0386H2.20505ZM8.12675 10.1819C8.16524 10.1822 8.2032 10.1905 8.2381 10.206C8.27299 10.2216 8.30401 10.2442 8.32906 10.2722C8.38124 10.3298 8.40998 10.4035 8.40998 10.4797C8.40998 10.556 8.38124 10.6297 8.32906 10.6873C8.30358 10.7149 8.27224 10.7371 8.23714 10.7522C8.20204 10.7674 8.16397 10.7752 8.12548 10.7751H2.40991C2.37161 10.7751 2.33377 10.7673 2.29888 10.7521C2.264 10.7369 2.23288 10.7148 2.2076 10.6873C2.15453 10.6297 2.12552 10.5554 2.12616 10.4785C2.12589 10.4023 2.1554 10.3287 2.20887 10.2722C2.23367 10.2442 2.26446 10.2217 2.29915 10.2061C2.33383 10.1905 2.3716 10.1822 2.40991 10.1819H8.12675ZM2.20505 6.73828C2.23038 6.71065 2.26148 6.68844 2.29633 6.67309C2.33118 6.65774 2.36901 6.64959 2.40736 6.64917H5.05266C5.09115 6.64911 5.12922 6.65692 5.16432 6.67207C5.19942 6.68723 5.23076 6.70938 5.25624 6.73706C5.30827 6.79491 5.33689 6.86878 5.33689 6.94519C5.33689 7.0216 5.30827 7.09547 5.25624 7.15332C5.23091 7.18095 5.19981 7.20316 5.16496 7.21851C5.13011 7.23386 5.09228 7.24201 5.05393 7.24243H2.40736C2.36888 7.24241 2.33084 7.23457 2.29575 7.21942C2.26066 7.20427 2.22931 7.18216 2.20378 7.15454C2.15175 7.09669 2.12312 7.02282 2.12312 6.94641C2.12312 6.87 2.15175 6.79613 2.20378 6.73828H2.20505ZM2.20505 4.97192C2.23056 4.94387 2.26204 4.92139 2.29739 4.90602C2.33273 4.89064 2.3711 4.88273 2.40991 4.88281H3.86425C3.90254 4.88285 3.94038 4.8907 3.97527 4.90586C4.01015 4.92101 4.04127 4.94312 4.06656 4.9707C4.11859 5.02856 4.14721 5.10242 4.14721 5.17883C4.14721 5.25524 4.11859 5.32911 4.06656 5.38696C4.04147 5.41456 4.0106 5.43676 3.97596 5.45212C3.94131 5.46747 3.90368 5.47564 3.86552 5.47607H2.40991C2.37167 5.47573 2.33392 5.46774 2.29908 5.45261C2.26425 5.43747 2.23309 5.41553 2.2076 5.38818C2.15473 5.33051 2.12576 5.25624 2.12616 5.17944C2.12607 5.10284 2.15553 5.02892 2.20887 4.97192H2.20505ZM9.45385 1.2793L11.7327 3.32764H9.45385V1.2793Z" fill="#6B7280"/>
</svg>
