<svg width="16" height="16" viewBox="0 0 16 16" fill="none" xmlns="http://www.w3.org/2000/svg">
<path fill-rule="evenodd" clip-rule="evenodd" d="M7.875 1.5C6.18425 1.5 4.56274 2.17165 3.36719 3.36719C2.17165 4.56274 1.5 6.18425 1.5 7.875C1.5 8.71218 1.66489 9.54116 1.98527 10.3146C2.30564 11.0881 2.77522 11.7908 3.36719 12.3828C3.95917 12.9748 4.66194 13.4444 5.43539 13.7647C6.20884 14.0851 7.03782 14.25 7.875 14.25C8.71218 14.25 9.54116 14.0851 10.3146 13.7647C11.0881 13.4444 11.7908 12.9748 12.3828 12.3828C12.9748 11.7908 13.4444 11.0881 13.7647 10.3146C14.0851 9.54116 14.25 8.71218 14.25 7.875C14.25 6.18425 13.5784 4.56274 12.3828 3.36719C11.1873 2.17165 9.56575 1.5 7.875 1.5ZM2.30653 2.30653C3.78338 0.829685 5.78642 0 7.875 0C9.96358 0 11.9666 0.829685 13.4435 2.30653C14.9203 3.78338 15.75 5.78642 15.75 7.875C15.75 8.90916 15.5463 9.93319 15.1506 10.8886C14.7548 11.8441 14.1747 12.7122 13.4435 13.4435C12.7122 14.1747 11.8441 14.7548 10.8886 15.1506C9.93319 15.5463 8.90916 15.75 7.875 15.75C6.84084 15.75 5.81681 15.5463 4.86137 15.1506C3.90593 14.7548 3.0378 14.1747 2.30653 13.4435C1.57527 12.7122 0.995204 11.8441 0.599449 10.8886C0.203693 9.93319 0 8.90916 0 7.875C5.96046e-08 5.78642 0.829685 3.78338 2.30653 2.30653ZM7.875 4.15625C8.28921 4.15625 8.625 4.49204 8.625 4.90625V9.03309L9.71967 7.93842C10.0126 7.64553 10.4874 7.64553 10.7803 7.93842C11.0732 8.23131 11.0732 8.70619 10.7803 8.99908L8.40533 11.3741C8.11244 11.667 7.63756 11.667 7.34467 11.3741L4.96967 8.99908C4.67678 8.70619 4.67678 8.23131 4.96967 7.93842C5.26256 7.64553 5.73744 7.64553 6.03033 7.93842L7.125 9.03309V4.90625C7.125 4.49204 7.46079 4.15625 7.875 4.15625Z" fill="#188A42"/>
</svg>
