<svg width="16" height="16" viewBox="0 0 16 16" fill="none" xmlns="http://www.w3.org/2000/svg">
<path fill-rule="evenodd" clip-rule="evenodd" d="M7.875 14.25C9.56575 14.25 11.1873 13.5784 12.3828 12.3828C13.5783 11.1873 14.25 9.56576 14.25 7.875C14.25 7.03782 14.0851 6.20884 13.7647 5.43539C13.4444 4.66194 12.9748 3.95917 12.3828 3.36719C11.7908 2.77522 11.0881 2.30564 10.3146 1.98527C9.54116 1.66489 8.71218 1.5 7.875 1.5C7.03782 1.5 6.20884 1.66489 5.43539 1.98527C4.66194 2.30564 3.95917 2.77522 3.36719 3.3672C2.77522 3.95917 2.30564 4.66194 1.98527 5.43539C1.66489 6.20884 1.5 7.03782 1.5 7.875C1.5 9.56576 2.17165 11.1873 3.36719 12.3828C4.56274 13.5784 6.18424 14.25 7.875 14.25ZM13.4435 13.4435C11.9666 14.9203 9.96358 15.75 7.875 15.75C5.78642 15.75 3.78338 14.9203 2.30653 13.4435C0.829685 11.9666 -5.05865e-07 9.96358 -6.88454e-07 7.875C-7.78863e-07 6.84084 0.203691 5.81681 0.599446 4.86137C0.995203 3.90593 1.57527 3.0378 2.30653 2.30654C3.03779 1.57527 3.90593 0.995205 4.86137 0.599448C5.81681 0.203692 6.84084 7.78863e-07 7.875 6.88454e-07C8.90916 5.98045e-07 9.93319 0.203692 10.8886 0.599448C11.8441 0.995204 12.7122 1.57527 13.4435 2.30653C14.1747 3.0378 14.7548 3.90593 15.1506 4.86137C15.5463 5.81681 15.75 6.84084 15.75 7.875C15.75 9.96358 14.9203 11.9666 13.4435 13.4435ZM7.875 11.5938C7.46079 11.5938 7.125 11.258 7.125 10.8438L7.125 6.71691L6.03033 7.81158C5.73744 8.10447 5.26256 8.10447 4.96967 7.81158C4.67678 7.51869 4.67678 7.04381 4.96967 6.75092L7.34467 4.37592C7.63756 4.08303 8.11244 4.08303 8.40533 4.37592L10.7803 6.75092C11.0732 7.04381 11.0732 7.51869 10.7803 7.81158C10.4874 8.10447 10.0126 8.10447 9.71967 7.81158L8.625 6.71691L8.625 10.8438C8.625 11.258 8.28921 11.5938 7.875 11.5938Z" fill="#EE4444"/>
</svg>
