<svg width="9" height="11" viewBox="0 0 9 11" fill="none" xmlns="http://www.w3.org/2000/svg">
<path fill-rule="evenodd" clip-rule="evenodd" d="M1.41554 0.674368C2.22433 0.250717 3.3154 0 4.5 0C5.6846 0 6.77567 0.250717 7.58446 0.674368C8.37079 1.08626 9 1.72797 9 2.55357V8.44643C9 9.27203 8.37079 9.91374 7.58446 10.3256C6.77567 10.7493 5.6846 11 4.5 11C3.3154 11 2.22433 10.7493 1.41554 10.3256C0.629207 9.91374 0 9.27203 0 8.44643V2.55357C0 1.72797 0.629207 1.08626 1.41554 0.674368ZM0.75 3.99027V4.51786C0.75 4.88549 1.04429 5.32414 1.75096 5.6943C2.43517 6.05269 3.4066 6.28571 4.5 6.28571C5.5934 6.28571 6.56483 6.05269 7.24904 5.6943C7.95571 5.32414 8.25 4.88549 8.25 4.51786V3.99027C8.05201 4.15851 7.82562 4.30645 7.58446 4.43278C6.77567 4.85643 5.6846 5.10714 4.5 5.10714C3.3154 5.10714 2.22433 4.85643 1.41554 4.43278C1.17438 4.30645 0.947989 4.15851 0.75 3.99027ZM8.25 5.95456C8.05201 6.12279 7.82562 6.27073 7.58446 6.39706C6.77567 6.82071 5.6846 7.07143 4.5 7.07143C3.3154 7.07143 2.22433 6.82071 1.41554 6.39706C1.17438 6.27073 0.947989 6.12279 0.75 5.95456V6.48214C0.75 6.84978 1.04429 7.28843 1.75096 7.65858C2.43517 8.01698 3.4066 8.25 4.5 8.25C5.5934 8.25 6.56483 8.01698 7.24904 7.65858C7.95571 7.28843 8.25 6.84978 8.25 6.48214V5.95456ZM8.25 7.91884C8.05201 8.08708 7.82562 8.23502 7.58446 8.36135C6.77567 8.785 5.6846 9.03572 4.5 9.03572C3.3154 9.03572 2.22433 8.785 1.41554 8.36135C1.17438 8.23502 0.947989 8.08708 0.75 7.91884V8.44643C0.75 8.81406 1.04429 9.25271 1.75096 9.62287C2.43517 9.98127 3.4066 10.2143 4.5 10.2143C5.5934 10.2143 6.56483 9.98127 7.24904 9.62287C7.95571 9.25271 8.25 8.81406 8.25 8.44643V7.91884ZM1.75096 1.37713C1.04429 1.74729 0.75 2.18594 0.75 2.55357C0.75 2.9212 1.04429 3.35985 1.75096 3.73001C2.43517 4.08841 3.4066 4.32143 4.5 4.32143C5.5934 4.32143 6.56483 4.08841 7.24904 3.73001C7.95571 3.35985 8.25 2.9212 8.25 2.55357C8.25 2.18594 7.95571 1.74729 7.24904 1.37713C6.56483 1.01874 5.5934 0.785714 4.5 0.785714C3.4066 0.785714 2.43517 1.01874 1.75096 1.37713Z" fill="#6B7280"/>
</svg>
