<svg width="11" height="10" viewBox="0 0 11 10" fill="none" xmlns="http://www.w3.org/2000/svg">
<path fill-rule="evenodd" clip-rule="evenodd" d="M5.72736 9.04762C6.83989 9.04762 7.90686 8.62117 8.69354 7.8621C9.48022 7.10302 9.92217 6.07349 9.92217 5C9.92217 4.46846 9.81366 3.94212 9.60286 3.45104C9.39205 2.95996 9.08306 2.51376 8.69354 2.1379C8.30401 1.76204 7.84158 1.4639 7.33264 1.26049C6.82371 1.05707 6.27823 0.952381 5.72736 0.952381C5.17649 0.952381 4.63102 1.05707 4.12208 1.26049C3.61314 1.4639 3.15071 1.76204 2.76119 2.1379C2.37166 2.51376 2.06267 2.95996 1.85187 3.45104C1.64106 3.94212 1.53256 4.46846 1.53256 5C1.53256 6.0735 1.97451 7.10302 2.76119 7.8621C3.54787 8.62118 4.61483 9.04762 5.72736 9.04762ZM9.39146 8.53553C8.41968 9.47322 7.10167 10 5.72736 10C4.35306 10 3.03504 9.47322 2.06326 8.53553C1.09148 7.59785 0.545544 6.32608 0.545544 5C0.545544 4.34339 0.679574 3.69321 0.939986 3.08658C1.2004 2.47995 1.58209 1.92876 2.06326 1.46447C2.54444 1.00017 3.11568 0.631875 3.74437 0.380601C4.37305 0.129327 5.04688 -4.59158e-07 5.72736 -5.1656e-07C6.40785 -5.73963e-07 7.08167 0.129327 7.71036 0.3806C8.33904 0.631874 8.91028 1.00017 9.39146 1.46447C9.87264 1.92876 10.2543 2.47995 10.5147 3.08658C10.7751 3.69321 10.9092 4.34339 10.9092 5C10.9092 6.32608 10.3632 7.59785 9.39146 8.53553ZM5.72736 7.36111C5.45481 7.36111 5.23386 7.14791 5.23386 6.88492L5.23386 4.2647L4.51355 4.95973C4.32083 5.1457 4.00836 5.1457 3.81563 4.95973C3.6229 4.77377 3.6229 4.47226 3.81563 4.2863L5.3784 2.77836C5.57113 2.5924 5.8836 2.5924 6.07632 2.77836L7.63909 4.2863C7.83182 4.47226 7.83182 4.77377 7.63909 4.95973C7.44637 5.1457 7.1339 5.1457 6.94117 4.95973L6.22087 4.2647L6.22087 6.88492C6.22087 7.14791 5.99992 7.36111 5.72736 7.36111Z" fill="#EE4444"/>
</svg>
