<svg width="11" height="10" viewBox="0 0 11 10" fill="none" xmlns="http://www.w3.org/2000/svg">
<path fill-rule="evenodd" clip-rule="evenodd" d="M5.72772 0.952381C4.61519 0.952381 3.54822 1.37883 2.76154 2.1379C1.97486 2.89698 1.53291 3.9265 1.53291 5C1.53291 5.53154 1.64141 6.05788 1.85222 6.54896C2.06303 7.04004 2.37202 7.48624 2.76154 7.8621C3.15107 8.23796 3.6135 8.5361 4.12243 8.73951C4.63137 8.94293 5.17685 9.04762 5.72772 9.04762C6.27859 9.04762 6.82406 8.94293 7.333 8.73951C7.84194 8.5361 8.30437 8.23796 8.69389 7.8621C9.08342 7.48624 9.3924 7.04004 9.60321 6.54896C9.81402 6.05788 9.92252 5.53154 9.92252 5C9.92252 3.9265 9.48057 2.89698 8.69389 2.1379C7.90721 1.37883 6.84025 0.952381 5.72772 0.952381ZM2.06362 1.46447C3.0354 0.526784 4.35341 0 5.72772 0C7.10202 0 8.42004 0.526784 9.39181 1.46447C10.3636 2.40215 10.9095 3.67392 10.9095 5C10.9095 5.65661 10.7755 6.30679 10.5151 6.91342C10.2547 7.52005 9.87299 8.07124 9.39181 8.53553C8.91064 8.99983 8.3394 9.36812 7.71071 9.6194C7.08203 9.87067 6.4082 10 5.72772 10C5.04723 10 4.37341 9.87067 3.74472 9.6194C3.11603 9.36812 2.54479 8.99983 2.06362 8.53553C1.58244 8.07124 1.20075 7.52005 0.940341 6.91342C0.67993 6.30679 0.545898 5.65661 0.545898 5C0.545898 3.67392 1.09184 2.40215 2.06362 1.46447ZM5.72772 2.63889C6.00027 2.63889 6.22122 2.85209 6.22122 3.11508V5.7353L6.94153 5.04027C7.13425 4.8543 7.44672 4.8543 7.63945 5.04027C7.83217 5.22623 7.83217 5.52774 7.63945 5.7137L6.07668 7.22164C5.88395 7.4076 5.57148 7.4076 5.37876 7.22164L3.81598 5.7137C3.62326 5.52774 3.62326 5.22623 3.81598 5.04027C4.00871 4.8543 4.32118 4.8543 4.51391 5.04027L5.23421 5.7353V3.11508C5.23421 2.85209 5.45516 2.63889 5.72772 2.63889Z" fill="#188A42"/>
</svg>
